<?xml version="1.0" standalone="no"?>
<!DOCTYPE svg PUBLIC "-//W3C//DTD SVG 20010904//EN"
 "http://www.w3.org/TR/2001/REC-SVG-20010904/DTD/svg10.dtd">
<svg version="1.0" xmlns="http://www.w3.org/2000/svg"
 width="659.000000pt" height="494.000000pt" viewBox="0 0 659.000000 494.000000"
 preserveAspectRatio="xMidYMid meet">

<g transform="translate(0.000000,494.000000) scale(0.100000,-0.100000)"
fill="#fff" stroke="none">
<path d="M70 4240 l0 -280 3260 0 3260 0 0 280 0 280 -3260 0 -3260 0 0 -280z"/>
<path d="M70 2470 l0 -280 3260 0 3260 0 0 280 0 280 -3260 0 -3260 0 0 -280z"/>
<path d="M70 700 l0 -280 3260 0 3260 0 0 280 0 280 -3260 0 -3260 0 0 -280z"/>
</g>
</svg>
